<?xml version="1.0" encoding="UTF-8"?>
<svg width="166px" height="31px" viewBox="0 0 166 31" version="1.1" xmlns="http://www.w3.org/2000/svg" xmlns:xlink="http://www.w3.org/1999/xlink">
    <title>logo-innotec</title>
    <defs>
        <polygon id="path-1" points="0 0 165.280111 0 165.280111 30 0 30"></polygon>
    </defs>
    <g id="Welcome" stroke="none" stroke-width="1" fill="none" fill-rule="evenodd">
        <g id="7.-CLIMATIZACION-(Landing)" transform="translate(-130.000000, -77.000000)">
            <g id="SLIDER" transform="translate(-0.437500, 0.000000)">
                <g id="Group-3" transform="translate(130.642624, 77.245426)">
                    <mask id="mask-2" fill="white">
                        <use xlink:href="#path-1"></use>
                    </mask>
                    <g id="Clip-2"></g>
                    <path d="M56.8229465,0.522552617 C57.1930134,0.876363266 57.3804374,1.3148016 57.3804374,1.82639267 L57.3804374,5.06854134 C57.3804374,5.57869805 57.2020977,6.01618013 56.8506776,6.36760017 C56.4949545,6.71902021 56.0579505,6.8973599 55.5516188,6.8973599 C55.0691932,6.8973599 54.6407955,6.72045457 54.2774224,6.37238139 C53.9097462,6.02000511 53.7228003,5.58156678 53.7228003,5.06854134 L53.7228003,1.82639267 C53.7228003,1.31623597 53.9016181,0.879232001 54.2535162,0.527333842 C54.9334064,-0.15399072 56.0732505,-0.195587377 56.8229465,0.522552617 L56.8229465,0.522552617 Z M75.629895,12.7706167 C76.0233899,13.6651839 76.2227669,14.6286007 76.2227669,15.6340923 L76.2227669,26.9330832 C76.2227669,27.4465868 76.0367773,27.8850251 75.668623,28.2369233 C75.3047718,28.5854746 74.8778084,28.7619018 74.3972952,28.7619018 C73.8876167,28.7619018 73.4506127,28.5835621 73.0987145,28.2321421 C72.7472945,27.8802439 72.5684767,27.4432399 72.5684767,26.9330832 L72.5684767,15.6340923 C72.5684767,15.1435386 72.4675928,14.668763 72.2677376,14.223631 C72.062145,13.7694146 71.7915276,13.3644448 71.4621012,13.0206747 C71.1360217,12.6864671 70.7377456,12.4196748 70.2806605,12.2308164 C69.3334999,11.8454496 68.2610711,11.8640964 67.3880194,12.2298601 C66.9419311,12.4187185 66.5412645,12.6874234 66.1970163,13.0273685 C65.8594618,13.3658792 65.5902788,13.7660677 65.3985517,14.2169372 C65.2120839,14.6639818 65.1169375,15.1416262 65.1169375,15.6340923 L65.1169375,26.9330832 C65.1169375,27.4456305 64.9299916,27.884547 64.5623154,28.2369233 C64.1984642,28.5854746 63.7695883,28.7619018 63.288119,28.7619018 C62.7784404,28.7619018 62.3414364,28.5835621 61.9890601,28.2321421 C61.6381182,27.8802439 61.4593004,27.4432399 61.4593004,26.9330832 L61.4593004,15.6340923 C61.4593004,14.6300351 61.6515057,13.6680526 62.0311349,12.7749198 C62.4088517,11.8865682 62.9443489,11.0976661 63.6223266,10.430207 C64.2936106,9.77183236 65.0810783,9.24446325 65.9641706,8.86292149 C67.6978428,8.11274729 69.8876438,8.09266615 71.7006844,8.86196525 C72.5942953,9.24255076 73.3817631,9.770398 74.0430065,10.4321195 C74.7032936,11.0924067 75.2373565,11.8789182 75.629895,12.7706167 L75.629895,12.7706167 Z M109.236169,21.4212871 C109.236169,21.9194907 109.141979,22.3952226 108.955033,22.8355734 C108.765697,23.2826179 108.496992,23.6837627 108.158003,24.0256203 C107.815667,24.367956 107.415957,24.6357046 106.967956,24.8226505 C106.092992,25.1927173 105.016738,25.2118422 104.073881,24.8202599 C103.618708,24.6357046 103.22091,24.3693904 102.89244,24.0304015 C102.560145,23.6861533 102.288571,23.2816617 102.086325,22.8293578 C101.888383,22.3856601 101.787977,21.9118407 101.787977,21.4212871 L101.787977,15.6340923 C101.787977,15.1421043 101.883123,14.6644599 102.069113,14.2174154 C102.261318,13.7660677 102.530501,13.3654011 102.86949,13.0264122 C103.206566,12.689814 103.605321,12.4215873 104.054756,12.2303383 C104.505625,12.0429142 104.995223,11.9477679 105.512073,11.9477679 C106.004539,11.9477679 106.489356,12.0429142 106.951222,12.2308164 C107.408785,12.4196748 107.807061,12.6864671 108.133141,13.0206747 C108.462567,13.3644448 108.733184,13.7694146 108.937821,14.2221966 C109.135764,14.668763 109.236169,15.1440168 109.236169,15.6340923 L109.236169,21.4212871 Z M110.714046,10.4321195 C110.052324,9.76991987 109.262466,9.24159451 108.368855,8.86196525 C106.56203,8.09314427 104.370317,8.11226917 102.63521,8.86292149 C101.752118,9.24446325 100.96465,9.77183236 100.293844,10.4297289 C99.6182571,11.0914505 99.0827599,11.8803526 98.7021744,12.7749198 C98.3225451,13.6680526 98.1303399,14.6300351 98.1303399,15.6340923 L98.1303399,21.4212871 C98.1303399,22.4243881 98.3297169,23.3863705 98.7232118,24.2814158 C99.1157503,25.1726362 99.6498132,25.9591477 100.309622,26.619913 C100.975647,27.2859376 101.765027,27.8137849 102.655291,28.1900673 C103.54699,28.5696965 104.508016,28.7619018 105.512073,28.7619018 C106.51613,28.7619018 107.477157,28.5696965 108.366943,28.1905454 C109.254816,27.8176099 110.049934,27.2897626 110.729346,26.6227817 C111.403499,25.9663195 111.938518,25.1769393 112.321972,24.2766346 C112.701601,23.3839799 112.893806,22.4229537 112.893806,21.4212871 L112.893806,15.6340923 C112.893806,14.6286007 112.694429,13.6651839 112.300934,12.7706167 C111.908396,11.8789182 111.374333,11.0924067 110.714046,10.4321195 L110.714046,10.4321195 Z M93.8501872,12.7706167 C94.2436821,13.6651839 94.442581,14.6286007 94.442581,15.6340923 L94.442581,26.9330832 C94.442581,27.4465868 94.2565914,27.8850251 93.8889152,28.2369233 C93.5241077,28.5854746 93.0961881,28.7619018 92.6175874,28.7619018 C92.1074307,28.7619018 91.6709049,28.5835621 91.3185286,28.2321421 C90.9671086,27.8802439 90.7887689,27.4432399 90.7887689,26.9330832 L90.7887689,15.6340923 C90.7887689,15.1435386 90.6874069,14.668763 90.4875517,14.223631 C90.2824372,13.7694146 90.0113417,13.3644448 89.6823934,13.0206747 C89.3563139,12.6864671 88.9580378,12.4196748 88.5004746,12.2308164 C87.5533139,11.8454496 86.4808852,11.8640964 85.6078335,12.2298601 C85.1622233,12.4187185 84.7610785,12.6874234 84.4173085,13.0273685 C84.079754,13.3654011 83.8100929,13.7660677 83.6178876,14.2174154 C83.431898,14.6644599 83.3367516,15.1421043 83.3367516,15.6340923 L83.3367516,26.9330832 C83.3367516,27.4456305 83.1502838,27.884547 82.7821295,28.2369233 C82.4182783,28.5854746 81.9898805,28.7619018 81.5084112,28.7619018 C80.9982545,28.7619018 80.5617286,28.5835621 80.2093523,28.2321421 C79.8579323,27.8802439 79.6795926,27.4432399 79.6795926,26.9330832 L79.6795926,15.6340923 C79.6795926,14.6300351 79.8717979,13.6680526 80.2514271,12.7749198 C80.6291439,11.8865682 81.164163,11.0976661 81.8426188,10.430207 C82.5134247,9.77183236 83.3008924,9.24446325 84.1844628,8.86292149 C85.9186131,8.11322541 88.1084142,8.09362239 89.9200203,8.86196525 C90.8136313,9.24255076 91.6020553,9.770398 92.2632987,10.4321195 C92.9235858,11.0924067 93.4576487,11.8789182 93.8501872,12.7706167 L93.8501872,12.7706167 Z M56.8229465,8.81510924 C57.1930134,9.16891989 57.3804374,9.60783635 57.3804374,10.1189493 L57.3804374,26.9330832 C57.3804374,27.4432399 57.2020977,27.8802439 56.8506776,28.2316639 C56.4949545,28.5840402 56.0579505,28.7619018 55.5516188,28.7619018 C55.0701495,28.7619018 54.6412736,28.5854746 54.2774224,28.2374014 C53.9097462,27.884547 53.7228003,27.4456305 53.7228003,26.9330832 L53.7228003,10.1189493 C53.7228003,9.60927071 53.9016181,9.17178863 54.2535162,8.81989047 C54.9334064,8.13760966 56.0732505,8.09649113 56.8229465,8.81510924 L56.8229465,8.81510924 Z M136.985921,16.8346579 L136.97349,15.6732984 C136.967752,15.1827447 137.057161,14.7046222 137.239326,14.2537527 C137.42675,13.8009707 137.691152,13.3979134 138.02775,13.0546214 C138.359567,12.7146763 138.756409,12.4421465 139.204409,12.2461163 C139.65241,12.0539111 140.14153,11.9535053 140.65838,11.948246 C140.671289,11.948246 140.685155,11.9477679 140.69902,11.9477679 C141.177621,11.9477679 141.650006,12.038133 142.100397,12.2159946 C142.559395,12.3995936 142.96054,12.6616047 143.290444,12.9934218 C143.623696,13.3343231 143.898616,13.735946 144.107556,14.1858593 C144.310758,14.6324257 144.416423,15.1062451 144.421204,15.5948863 L144.433635,16.7562458 L136.985921,16.8346579 Z M147.594025,19.8501765 C147.941142,19.4949315 148.115178,19.0564932 148.110035,18.5458583 L148.078363,15.5561584 C148.067366,14.5506667 147.857949,13.5901186 147.455369,12.6988983 C147.053746,11.8124592 146.511556,11.0316851 145.844097,10.3776136 C145.174725,9.72258575 144.379607,9.20238847 143.481693,8.83232165 C142.58617,8.46225484 141.627534,8.27387457 140.619652,8.29108698 C139.589776,8.30160568 138.623491,8.50432962 137.748526,8.89399946 C136.869259,9.28462554 136.088007,9.82060086 135.424373,10.4851911 C134.75548,11.1545626 134.22811,11.9492022 133.857565,12.8475944 C133.487499,13.7440741 133.304856,14.7084472 133.315853,15.7125044 L133.376574,21.4987429 C133.387571,22.5008877 133.596989,23.4609576 134.000046,24.3526561 C134.401191,25.2395733 134.943382,26.0203474 135.611797,26.674419 C136.283559,27.3327936 137.078677,27.8529909 137.973244,28.2197109 C138.843427,28.5797371 139.778156,28.7619018 140.754004,28.7619018 C140.780779,28.7619018 140.80851,28.7619018 140.835285,28.7614237 C142.352368,28.7451675 143.722189,28.3186822 144.90602,27.4934428 C146.089852,26.6662909 146.969597,25.5866903 147.519438,24.2890658 C147.667656,23.9548582 147.73794,23.6775471 147.735071,23.442789 C147.73029,22.9651446 147.550038,22.5386593 147.197183,22.1733737 C146.840026,21.8095225 146.408759,21.6230548 145.886649,21.6335734 C145.507498,21.6373984 145.161816,21.7468885 144.85773,21.9582186 C144.554122,22.1690706 144.336098,22.4573785 144.204615,22.8279235 L144.184055,22.9044231 C143.879969,23.5723602 143.426231,24.1088136 142.834315,24.500396 C142.236662,24.8953251 141.551991,25.0990053 140.796557,25.1071334 C140.333735,25.1114365 139.818319,25.0215495 139.356452,24.8350817 C138.898411,24.6548295 138.498222,24.3928184 138.166884,24.0571764 C137.826938,23.7134063 137.558234,23.3232584 137.347382,22.8656951 C137.144658,22.4239099 137.039471,21.9510468 137.033733,21.4604931 L137.023693,20.4918169 L146.30166,20.3942799 C146.81086,20.3885425 147.245474,20.2058997 147.594025,19.8501765 L147.594025,19.8501765 Z M164.75432,22.2412671 C165.103827,22.6098996 165.280254,23.0378192 165.280254,23.5164198 C165.280254,23.7487874 165.231008,23.9792424 165.133949,24.2010913 C164.594627,25.3887476 163.933861,26.3067428 163.169822,26.9340395 C162.425385,27.5484269 161.679036,27.9997745 160.953246,28.274695 C160.23654,28.5453123 159.613546,28.696399 159.102433,28.723652 C158.610445,28.7494706 158.351303,28.7619018 158.325006,28.7619018 C157.320471,28.7619018 156.359923,28.5696965 155.469181,28.1900673 C154.582263,27.8176099 153.792405,27.2888064 153.123512,26.619913 C152.465615,25.9648852 151.930596,25.1778955 151.536145,24.2814158 C151.14265,23.3849362 150.943273,22.4224756 150.943273,21.4212871 L150.943273,15.6340923 C150.943273,14.6051727 151.14265,13.6293247 151.535189,12.7333231 C151.930118,11.8382778 152.479481,11.0555913 153.168933,10.4058228 C153.851692,9.76179179 154.657807,9.24207263 155.565283,8.86148713 C156.472282,8.48233598 157.452911,8.29013074 158.479918,8.29013074 C158.682642,8.29013074 159.057012,8.32407744 159.591553,8.39101459 C160.151912,8.45747361 160.780165,8.64250702 161.457187,8.93942109 C162.142814,9.24398512 162.821748,9.70298272 163.475342,10.3054171 C164.144713,10.917892 164.704595,11.7780344 165.138252,12.8605037 C165.234833,13.1162992 165.280254,13.3348012 165.280254,13.5356127 C165.280254,14.0457694 165.101436,14.4827733 164.750495,14.8341934 C164.394771,15.1865697 163.958724,15.3644312 163.451436,15.3644312 C163.063678,15.3644312 162.714649,15.2578099 162.414388,15.047436 C162.107911,14.8389746 161.886541,14.551623 161.760795,14.1973342 C161.439974,13.5164878 160.958983,12.9523032 160.344596,12.5511585 C159.72734,12.1447543 159.066574,11.9477679 158.325006,11.9477679 C157.808156,11.9477679 157.318558,12.0429142 156.867689,12.2303383 C156.422557,12.4187185 156.022368,12.6874234 155.678598,13.0273685 C155.338175,13.3706604 155.06947,13.7713271 154.883481,14.2155029 C154.696057,14.6592006 154.60091,15.1358887 154.60091,15.6340923 L154.60091,21.4212871 C154.60091,21.9171001 154.700838,22.3904414 154.898302,22.8279235 C155.101983,23.2816617 155.374034,23.6861533 155.705851,24.0299234 C156.031453,24.3693904 156.427338,24.6352265 156.884423,24.8202599 C157.346768,25.0110308 157.831106,25.1076115 158.325006,25.1076115 C159.087134,25.1076115 159.760808,24.9101469 160.38667,24.5037428 C161.003449,24.0982949 161.456709,23.5508447 161.769401,22.8317484 C161.928137,22.4831971 162.149986,22.2073204 162.431122,22.006509 C162.726124,21.7951789 163.069894,21.6876013 163.451436,21.6876013 C163.961114,21.6876013 164.399553,21.8735909 164.75432,22.2412671 L164.75432,22.2412671 Z M131.472212,22.2436578 C131.818851,22.6098996 131.995278,23.0378192 131.995278,23.5164198 C131.995278,23.7487874 131.946032,23.9792424 131.848973,24.2010913 C131.308216,25.3911382 130.648885,26.3091334 129.888193,26.9335614 C129.137062,27.5512956 128.390713,28.0021651 127.671138,28.274695 C126.953955,28.5453123 126.330483,28.696399 125.816979,28.723652 C125.324991,28.7494706 125.066327,28.7619018 125.04003,28.7619018 C124.038842,28.7619018 123.077816,28.5696965 122.183727,28.1900673 C121.291072,27.8133067 120.50217,27.2845033 119.840448,26.6189567 C119.179683,25.9620164 118.644186,25.1745487 118.250691,24.2814158 C117.857674,23.3777643 117.658297,22.41626 117.658297,21.4212871 L117.658297,12.2972754 L115.185926,12.2972754 C114.675291,12.2972754 114.239243,12.1189357 113.887823,11.7675157 C113.534969,11.4113144 113.357585,10.9747886 113.357585,10.4684568 C113.357585,9.98698749 113.534012,9.55858973 113.882564,9.19426039 C114.233984,8.82610606 114.6729,8.64011641 115.185926,8.64011641 L117.658297,8.64011641 L117.658297,4.33223269 C117.658297,3.82207598 117.836637,3.3845939 118.188057,3.03317386 C118.540433,2.68175382 118.976959,2.50341413 119.487116,2.50341413 C119.968585,2.50341413 120.397461,2.67984133 120.760834,3.02791451 C121.128988,3.38029079 121.315934,3.81968537 121.315934,4.33223269 L121.315934,8.6377258 L128.497334,8.6377258 C129.0051,8.6377258 129.442104,8.81749986 129.796393,9.17131051 C130.147813,9.52225242 130.326153,9.95782202 130.326153,10.4665444 C130.326153,10.94897 130.149726,11.3778458 129.801652,11.7407408 C129.449276,12.1088951 129.01036,12.2953629 128.497334,12.2953629 L121.315934,12.2967973 L121.315934,21.4212871 C121.315934,21.9123189 121.416818,22.3856601 121.616673,22.8279235 C121.816528,23.2807055 122.086668,23.684719 122.420875,24.0299234 C122.748389,24.3689123 123.145709,24.6352265 123.601838,24.8202599 C124.764154,25.3026855 126.085684,25.1673768 127.100738,24.5042209 C127.723254,24.0954262 128.175558,23.5484541 128.483947,22.8331828 C128.640771,22.4879784 128.862142,22.2125798 129.143756,22.0079434 C129.44067,21.7951789 129.78444,21.6876013 130.16646,21.6876013 C130.679485,21.6876013 131.118402,21.8745472 131.470778,22.2422234 L131.472212,22.2436578 Z M29.8028097,9.88610364 L26.0399857,9.88610364 L21.7225395,16.1299054 L18.1012397,16.1299054 L19.9950829,13.283164 L22.7179906,13.283164 L26.9785401,6.98724693 L31.9156331,6.98724693 L29.8028097,9.88610364 Z M22.9450987,16.1299054 L26.5673548,10.8915953 L29.069848,10.8915953 L25.2510836,16.1299054 L22.9450987,16.1299054 Z M32.9641557,10.8915953 L24.7031552,22.4310818 L18.6223932,22.3818352 L22.2499086,17.135397 L25.7626746,17.135397 L30.3144008,10.8915953 L32.9641557,10.8915953 Z M24.1824798,6.98724693 L25.7645871,6.98724693 L22.184884,12.2771943 L20.6639763,12.2771943 L24.1824798,6.98724693 Z M44.4735205,4.5937657 C43.6047719,4.5937657 42.8808945,5.18329074 42.6595237,5.98175531 L33.8936258,5.98175531 L36.1250236,2.92081507 L39.0726488,2.92081507 C39.2940195,3.71880152 40.0178969,4.30832657 40.8866455,4.30832657 C41.9308651,4.30832657 42.7771419,3.46204974 42.7771419,2.4178302 C42.7771419,1.37408879 41.9308651,0.527333842 40.8866455,0.527333842 C40.0178969,0.527333842 39.2935414,1.11685888 39.0726488,1.91532346 L35.6134325,1.91532346 L32.649073,5.98175531 L27.6589085,5.98175531 L30.4109816,1.91532346 L24.562109,1.91532346 C24.3407383,1.11685888 23.6163827,0.527333842 22.7476341,0.527333842 C21.7038927,0.527333842 20.8571378,1.37408879 20.8571378,2.4178302 C20.8571378,3.46204974 21.7038927,4.30832657 22.7476341,4.30832657 C23.6163827,4.30832657 24.3407383,3.71880152 24.562109,2.92081507 L28.5161821,2.92081507 L26.4449554,5.98175531 L23.6431576,5.98175531 L19.4557607,12.2771943 L4.50200145,12.2771943 C4.28063074,11.4792078 3.55627515,10.8896828 2.68752657,10.8896828 C1.64330703,10.8896828 0.797030206,11.7359596 0.797030206,12.7801791 C0.797030206,13.8239205 1.64330703,14.6706755 2.68752657,14.6706755 C3.55627515,14.6706755 4.28015261,14.0811504 4.50152333,13.283164 L18.7868674,13.283164 L16.8930241,16.1299054 L12.2069455,16.1299054 C11.9855748,15.3314408 11.2612192,14.7423939 10.3929488,14.7423939 C9.34872923,14.7423939 8.50197428,15.5886707 8.50197428,16.6328902 C8.50197428,17.6766316 9.34872923,18.5233866 10.3929488,18.5233866 C11.2612192,18.5233866 11.9855748,17.9338615 12.2069455,17.135397 L16.2241308,17.135397 L14.8610035,19.1855863 L3.70449312,19.1855863 C3.48312241,18.3871217 2.75924494,17.7975966 1.89049636,17.7975966 C0.846276824,17.7975966 0,18.6443516 0,19.688093 C0,20.7323125 0.846276824,21.5785894 1.89049636,21.5785894 C2.75924494,21.5785894 3.48312241,20.9895424 3.70449312,20.1910779 L15.3998476,20.1910779 L17.4323463,17.135397 L21.0273494,17.135397 L16.7151626,23.3715487 L23.9869277,23.4308359 L20.9977058,27.6067578 L14.4655962,27.6067578 C14.2442255,26.8082933 13.5198699,26.2187682 12.6511213,26.2187682 C11.6073799,26.2187682 10.760625,27.0655232 10.760625,28.1092646 C10.760625,29.1534841 11.6073799,30.0002391 12.6511213,30.0002391 C13.5198699,30.0002391 14.2442255,29.410714 14.4655962,28.6122494 L21.5140781,28.6122494 L25.2166587,23.4408765 L30.2340762,23.481995 C30.4487532,24.2823721 31.1683276,24.8776346 32.0370762,24.8843283 C33.0808176,24.8929345 33.9342663,24.0533514 33.9428725,23.00961 C33.9514787,21.9653905 33.1118956,21.1119418 32.067676,21.1038137 C31.1989274,21.0966419 30.4697906,21.6799513 30.2422043,22.4765034 L25.9324081,22.4411223 L34.9215892,9.88610364 L31.0473626,9.88610364 L33.1606641,6.98724693 L42.6595237,6.98724693 C42.8808945,7.7857115 43.6052501,8.37523654 44.4735205,8.37523654 C45.51774,8.37523654 46.3640169,7.5284816 46.3640169,6.48426206 C46.3640169,5.44052064 45.51774,4.5937657 44.4735205,4.5937657 L44.4735205,4.5937657 Z" id="Fill-1" fill="#FFFFFF" mask="url(#mask-2)"></path>
                </g>
            </g>
        </g>
    </g>
</svg>