<?xml version="1.0" encoding="UTF-8"?>
<svg width="32px" height="25px" viewBox="0 0 32 25" version="1.1" xmlns="http://www.w3.org/2000/svg" xmlns:xlink="http://www.w3.org/1999/xlink">
    <title>MAil Copy 2</title>
    <g id="Welcome" stroke="none" stroke-width="1" fill="none" fill-rule="evenodd">
        <g id="HOME" transform="translate(-1205.000000, -30.000000)" fill="#FFFFFF">
            <g id="MAil-Copy-2" transform="translate(1205.000000, 30.000000)">
                <path d="M29.1875,0 L2.8125,0 C1.263625,0 0,1.28886154 0,2.87179487 L0,22.017094 C0,23.5946667 1.258,24.8888889 2.8125,24.8888889 L29.1875,24.8888889 C30.7325,24.8888889 32,23.604367 32,22.017094 L32,2.87179487 C32,1.29422222 30.742,0 29.1875,0 Z M28.799125,1.91452991 L16.059625,14.9226758 L3.2099375,1.91452991 L28.799125,1.91452991 Z M1.875,21.6206587 L1.875,3.25910427 L10.9049375,12.4003464 L1.875,21.6206587 Z M3.2008125,22.974359 L12.2364375,13.7482393 L15.4025,16.95329 C15.769,17.3243259 16.3604375,17.3231134 16.7254375,16.9503544 L19.8125,13.7982085 L28.7991875,22.974359 L3.2008125,22.974359 Z M30.125,21.6205949 L21.1383125,12.4444444 L30.125,3.2682302 L30.125,21.6205949 Z" id="Shape"></path>
            </g>
        </g>
    </g>
</svg>